<svg xmlns="http://www.w3.org/2000/svg" width="1024" height="1024" viewBox="0 0 1024 1024">
  <defs>
    <linearGradient id="lime" x1="180" y1="110" x2="840" y2="920" gradientUnits="userSpaceOnUse">
      <stop offset="0" stop-color="#e9ff78"/>
      <stop offset="0.55" stop-color="#d7fa4a"/>
      <stop offset="1" stop-color="#b9dd2f"/>
    </linearGradient>
    <filter id="shadow" x="-30%" y="-30%" width="160%" height="160%">
      <feDropShadow dx="0" dy="34" stdDeviation="34" flood-color="#000000" flood-opacity="0.28"/>
    </filter>
  </defs>
  <rect x="58" y="58" width="908" height="908" rx="230" fill="#111814" filter="url(#shadow)"/>
  <rect x="86" y="86" width="852" height="852" rx="205" fill="url(#lime)"/>
  <path d="M675 262c23 0 42 18 42 41v305c0 91-73 165-164 165s-164-66-164-147 66-147 147-147c39 0 75 15 101 39V303c0-23 17-41 38-41Z" fill="#172018"/>
  <path d="M563 559c-46 0-84 31-84 68s38 67 84 67 83-30 83-67-37-68-83-68Z" fill="#d7fa4a"/>
  <circle cx="747" cy="251" r="38" fill="#172018"/>
  <path d="M233 390h52v244h-52zM305 450h52v124h-52z" rx="24" fill="#172018" opacity="0.78"/>
  <path d="M233 659h124" stroke="#172018" stroke-width="28" stroke-linecap="round" opacity="0.42"/>
</svg>
